<svg xmlns="http://www.w3.org/2000/svg" width="64" height="64" viewBox="0 0 64 64">
  <g id="Group_784" data-name="Group 784" transform="translate(-15106 -1543)">
    <path id="Path_703" data-name="Path 703" d="M185.942,129.068l-1.638.964a3.627,3.627,0,0,0-1.156,5.3l1.156,1.445a3.47,3.47,0,0,1,0,4.24l-1.06,1.541a3.65,3.65,0,0,0,1.253,5.3l1.638.867a3.557,3.557,0,0,1,1.831,3.758l-.289,1.831a3.642,3.642,0,0,0,3.373,4.24l1.831.1a3.617,3.617,0,0,1,3.276,2.6l.482,1.831a3.585,3.585,0,0,0,4.914,2.313l1.734-.771a3.7,3.7,0,0,1,4.143.867l1.253,1.349a3.577,3.577,0,0,0,5.4,0l1.253-1.445a3.728,3.728,0,0,1,4.143-.964l1.734.675a3.631,3.631,0,0,0,4.914-2.409l.482-1.831a3.59,3.59,0,0,1,3.276-2.7l1.831-.1a3.586,3.586,0,0,0,3.373-4.24L234.695,152a3.691,3.691,0,0,1,1.831-3.854l1.735-.772a3.627,3.627,0,0,0,1.156-5.3l-1.156-1.445a3.47,3.47,0,0,1,0-4.24l1.06-1.542a3.65,3.65,0,0,0-1.253-5.3l-1.638-.867a3.557,3.557,0,0,1-1.831-3.758l.289-1.831a3.642,3.642,0,0,0-3.373-4.24l-1.927-.1a3.617,3.617,0,0,1-3.276-2.6l-.578-1.83a3.585,3.585,0,0,0-4.914-2.313l-1.734.771a3.7,3.7,0,0,1-4.143-.867l-1.253-1.349a3.576,3.576,0,0,0-5.4,0l-1.253,1.445a3.728,3.728,0,0,1-4.143.964l-1.734-.675a3.63,3.63,0,0,0-4.914,2.409l-.482,1.831a3.59,3.59,0,0,1-3.276,2.7l-1.831.1a3.586,3.586,0,0,0-3.373,4.24l.385,1.831a3.353,3.353,0,0,1-1.735,3.661Zm10.792,3.565,9.25-.675,3.469-8.575a1.907,1.907,0,0,1,3.565,0l3.469,8.575,9.25.675a2,2,0,0,1,1.156,3.469l-7.033,5.974,2.216,8.96a1.943,1.943,0,0,1-2.891,2.12l-7.9-4.913-7.9,4.914a1.913,1.913,0,0,1-2.891-2.12l2.216-8.96-7.033-5.974a1.957,1.957,0,0,1,1.061-3.469Z" transform="translate(14926.718 1436.297)" fill="#eed601"/>
    <rect id="Rectangle_208" data-name="Rectangle 208" width="64" height="64" transform="translate(15106 1543)" fill="none"/>
  </g>
</svg>
