<svg xmlns="http://www.w3.org/2000/svg" width="32" height="32" viewBox="0 0 32 32">
  <g id="Group_757" data-name="Group 757" transform="translate(-12756 -3096)">
    <path id="Path_700" data-name="Path 700" d="M144.115,58.543h-2.372v-.984a1.223,1.223,0,0,0-1.223-1.223H126.072a1.223,1.223,0,0,0-1.207,1.222v.984h-2.372a1.7,1.7,0,0,0-1.7,1.7v3.148a3.576,3.576,0,0,0,3.573,3.573h.562a7.235,7.235,0,0,0,6.357,6.22v2.9H130.3a1.678,1.678,0,0,0-1.678,1.678v1.293a1.678,1.678,0,0,0,1.678,1.678h6a1.678,1.678,0,0,0,1.678-1.678V77.766a1.678,1.678,0,0,0-1.678-1.678h-.984v-2.9a7.235,7.235,0,0,0,6.357-6.22h.562a3.576,3.576,0,0,0,3.573-3.573V60.243a1.7,1.7,0,0,0-1.7-1.7Zm-19.256,6.892h-.492a2.048,2.048,0,0,1-2.045-2.045V60.243a.174.174,0,0,1,.171-.171h2.372Zm11.447,12.18a.15.15,0,0,1,.15.15v1.293a.149.149,0,0,1-.15.15h-6a.15.15,0,0,1-.15-.15V77.766a.15.15,0,0,1,.15-.15Zm-3.491-1.528V73.23h.978v2.858Zm7.4-16.78v6.7a5.7,5.7,0,0,1-5.688,5.691h-2.445a5.7,5.7,0,0,1-5.688-5.691V57.88h13.821Zm4.071,4.084a2.048,2.048,0,0,1-2.045,2.045h-.5V60.072h2.372a.174.174,0,0,1,.171.171Z" transform="translate(12638.695 3043.464)" fill="#b08a63"/>
    <rect id="Rectangle_200" data-name="Rectangle 200" width="32" height="32" transform="translate(12756 3096)" fill="none"/>
    <g id="Polygon_5" data-name="Polygon 5" transform="translate(12767 3103)" fill="none">
      <path d="M4.56.817a.5.5,0,0,1,.88,0L6.456,2.7a.5.5,0,0,0,.366.257l2.163.325a.5.5,0,0,1,.27.858L7.742,5.576a.5.5,0,0,0-.149.446l.339,2.027a.5.5,0,0,1-.71.533l-2-.966a.5.5,0,0,0-.434,0l-2,.966a.5.5,0,0,1-.71-.533l.339-2.027a.5.5,0,0,0-.149-.446L.745,4.143a.5.5,0,0,1,.27-.858l2.163-.325A.5.5,0,0,0,3.544,2.7Z" stroke="none"/>
      <path d="M 4.999999046325684 2.10851001739502 L 4.423979759216309 3.177768707275391 C 4.20112943649292 3.591388702392578 3.790699481964111 3.879958629608154 3.326069355010986 3.949698925018311 L 2.177464962005615 4.122086048126221 L 2.945789337158203 4.84946870803833 C 3.308899402618408 5.19321870803833 3.47646951675415 5.692869186401367 3.394039630889893 6.186028480529785 L 3.214320182800293 7.261264324188232 L 4.348789691925049 6.71453857421875 C 4.550699710845947 6.617238998413086 4.775879383087158 6.565808773040771 4.999999523162842 6.565808773040771 C 5.224119663238525 6.565808773040771 5.449299335479736 6.617238998413086 5.651209354400635 6.71453857421875 L 6.785674095153809 7.2612624168396 L 6.605959415435791 6.186038970947266 C 6.523529529571533 5.692869186401367 6.691099166870117 5.19321870803833 7.05420970916748 4.84946870803833 L 7.82253360748291 4.122087001800537 L 6.673919677734375 3.949698925018311 C 6.209299564361572 3.879958629608154 5.798869609832764 3.591388702392578 5.575989723205566 3.177718639373779 L 4.999999046325684 2.10851001739502 M 4.999999523162842 0.5542516708374023 C 5.172892093658447 0.5542516708374023 5.345784664154053 0.6418733596801758 5.440189361572266 0.8171186447143555 L 6.456369400024414 2.70344877243042 C 6.531049728393555 2.842058658599854 6.66664981842041 2.937408924102783 6.822349548339844 2.960778713226318 L 8.985469818115234 3.285429000854492 C 9.39756965637207 3.347278594970703 9.557619094848633 3.856498718261719 9.255009651184082 4.142988681793213 L 7.74169921875 5.575658798217773 C 7.620859622955322 5.690058708190918 7.564849853515625 5.85706901550293 7.592279434204102 6.021178722381592 L 7.931079864501953 8.048209190368652 C 7.99791955947876 8.448079109191895 7.58607006072998 8.75706958770752 7.220859527587891 8.581058502197266 L 5.217069625854492 7.615388870239258 C 5.079908847808838 7.549288749694824 4.920098781585693 7.549288749694824 4.782929420471191 7.615388870239258 L 2.779139518737793 8.581058502197266 C 2.413930892944336 8.757068634033203 2.002079963684082 8.448079109191895 2.068919658660889 8.048209190368652 L 2.407719612121582 6.021178722381592 C 2.435149669647217 5.85706901550293 2.379139423370361 5.690058708190918 2.258299350738525 5.575658798217773 L 0.7449893951416016 4.142988681793213 C 0.4423799514770508 3.856498718261719 0.6024293899536133 3.347278594970703 1.014529228210449 3.285429000854492 L 3.17764949798584 2.960778713226318 C 3.333349704742432 2.937408924102783 3.468949317932129 2.842058658599854 3.54362964630127 2.70344877243042 L 4.559809684753418 0.8171186447143555 C 4.654214382171631 0.6418733596801758 4.827106952667236 0.5542516708374023 4.999999523162842 0.5542516708374023 Z" stroke="none" fill="#b08a63"/>
    </g>
  </g>
</svg>
