<svg xmlns="http://www.w3.org/2000/svg" width="32" height="32" viewBox="0 0 32 32">
  <g id="tag_people_icon" data-name="tag people icon" transform="translate(13709 15398)">
    <g id="Group_1648" data-name="Group 1648" transform="translate(10.599 42.824)">
      <g id="tag" transform="translate(-13699.94 -15433.516)">
        <path id="Path_1251" data-name="Path 1251" d="M9.214,5.073,5.119,9.168a.547.547,0,0,1-.39.161H1.951A.827.827,0,0,1,1.125,8.5V5.731a.553.553,0,0,1,.174-.4L5.655,1.237a.41.41,0,0,1,.283-.112h.015a.41.41,0,0,1,.289.133L9.226,4.5a.412.412,0,0,1-.012.572ZM5.931,1.734l-4.255,4V8.5a.276.276,0,0,0,.275.275H4.729l4-4Z" transform="translate(-1.125 -1.125)" stroke="#000" stroke-width="0.5"/>
        <path id="Path_1252" data-name="Path 1252" d="M7.645,8.54a.9.9,0,1,1,.9-.9.9.9,0,0,1-.9.9Zm0-1.239a.344.344,0,1,0,.344.344A.344.344,0,0,0,7.645,7.3Z" transform="translate(-5.373 -1.713)" stroke="#000" stroke-width="0.15"/>
      </g>
      <path id="noun-person-5344418" d="M148.8,46.73a5.865,5.865,0,1,1,5.865-5.865A5.872,5.872,0,0,1,148.8,46.73Zm0-10.264a4.4,4.4,0,1,0,4.4,4.4A4.4,4.4,0,0,0,148.8,36.466Zm6.6,19.794H142.2a2.2,2.2,0,0,1-2.2-2.2v-2.2a3.67,3.67,0,0,1,3.666-3.666h10.264a3.67,3.67,0,0,1,3.666,3.666v2.2A2.2,2.2,0,0,1,155.4,56.26Zm-11.73-6.6a2.2,2.2,0,0,0-2.2,2.2v2.2a.734.734,0,0,0,.733.733h13.2a.734.734,0,0,0,.733-.733v-2.2a2.2,2.2,0,0,0-2.2-2.2Z" transform="translate(-13856.4 -15470.941)" stroke="#000" stroke-width="0.3"/>
    </g>
    <rect id="Rectangle_550" data-name="Rectangle 550" width="32" height="32" transform="translate(-13709 -15398)" fill="none"/>
  </g>
</svg>
